<?xml version="1.0" encoding="UTF-8" standalone="no"?>
<!-- Created with Inkscape (http://www.inkscape.org/) -->
<svg version="1.1" id="svg2" width="755.90668" height="226.77333" viewBox="0 0 755.90668 226.77333" sodipodi:docname="Logo.eps" xmlns:inkscape="http://www.inkscape.org/namespaces/inkscape" xmlns:sodipodi="http://sodipodi.sourceforge.net/DTD/sodipodi-0.dtd" xmlns="http://www.w3.org/2000/svg" xmlns:svg="http://www.w3.org/2000/svg">
	<defs id="defs6">
		<clipPath clipPathUnits="userSpaceOnUse" id="clipPath18">
			<path d="M 30.707,15.3086 H 1334.18 V 1681.07 H 30.707 Z" id="path16" />
		</clipPath>
	</defs>
	<namedview id="namedview4" pagecolor="#ffffff" bordercolor="#000000" borderopacity="0.25" inkscape:showpageshadow="2" inkscape:pageopacity="0.0" inkscape:pagecheckerboard="0" inkscape:deskcolor="#d1d1d1" />
	<g id="g8" inkscape:groupmode="layer" inkscape:label="ink_ext_XXXXXX" transform="matrix(1.3333333,0,0,-1.3333333,0,226.77333)">
		<g id="g10" transform="scale(0.1)">
			<g id="g12">
				<g id="g14" clip-path="url(#clipPath18)">
					<path d="m 1110.08,66.6289 c 3.88,-12.3672 9.78,-21.1797 8.43,-28.5976 -4.62,-24.793 -12.52,-27.2227 -36.3,-17.2696 -80.62,33.7071 -159.667,72.5 -242.636,98.9183 -106.547,33.949 -214.824,65.082 -327.054,75.66 -121.145,11.441 -242.043,6.199 -362.079,-14.11 -16.398,-2.781 -32.136,-9.89 -48.503,-11.519 -8.4614,-0.902 -22.5708,3.398 -25.5552,9.539 -6.4805,13.352 6.9024,16.918 16.9922,21.078 19.449,8.082 38.172,18.031 58.004,24.891 24.445,8.461 49.441,15.64 74.613,21.601 88.656,20.981 178.836,28.289 269.606,24.692 44.414,-1.801 88.722,-8.223 132.722,-14.801 17.024,-2.539 22.989,0 23.231,17.891 1.699,126.957 4.09,253.957 6.379,380.957 1.351,76.527 2.531,153.082 4.851,229.566 0.524,16.715 -5.683,19.898 -20.765,20.426 -77.25,2.734 -154.461,6.824 -231.676,9.914 -41.258,1.629 -82.551,2.043 -123.813,3.156 -9.324,0.238 -18.687,0.656 -27.945,1.695 -14.559,1.563 -17.648,10.641 -8.527,20.211 17.89,18.758 35.816,38.528 57.277,52.325 11.719,7.488 30.824,5.234 46.461,4.503 92.504,-4.195 184.937,-9.359 277.441,-13.832 11.371,-0.519 25.379,-3.5 27.528,14.668 2.949,24.509 -4.68,39.759 -21.668,43.059 -52.321,10.16 -69.969,56.07 -38.035,98.92 5.097,6.86 10.089,13.77 16.504,22.5 -195.758,9.64 -389.329,19.18 -582.8286,28.74 -0.6953,2.88 -1.3516,5.76 -2.0469,8.67 14.9766,9.92 30.0938,19.66 44.8633,29.92 101.1372,70.21 202.2422,140.46 303.2732,210.81 54.055,37.65 108.035,75.3 161.813,113.3 55.992,39.56 111.816,79.29 167.426,119.37 13.039,9.4 23.234,10.75 37.171,-0.13 72.254,-56.8 145.098,-112.82 218.254,-168.47 105.992,-80.68 212.362,-160.77 318.562,-241.22 17.72,-13.45 35.33,-27.14 52.15,-44.3 -192.71,-27.81 -386.137,-36.58 -579.153,-49.55 -0.488,-1.94 -0.973,-3.81 -1.457,-5.75 4.644,-4.16 9.258,-8.36 13.902,-12.52 22.188,-19.66 29.297,-45.31 19.934,-72.18 -8.805,-25.38 -27.321,-37.41 -58.176,-40.08 -9.016,-0.83 -23.926,-4.16 -25.312,-9.26 -3.672,-13.59 -2.012,-28.82 -0.969,-43.305 0.101,-1.906 8.84,-4.266 13.695,-4.613 61.781,-4.2 123.602,-8.082 185.422,-11.993 31.203,-2.05 62.48,-3.539 93.648,-6.242 21.326,-1.871 24.966,-7.664 17.406,-27.152 C 979.82,851.145 946.086,765.789 912.559,680.359 877.781,591.629 842.383,503.121 808.438,414.121 788.262,361.281 770.961,307.43 751.16,254.48 c -6.969,-18.691 -1.422,-25.82 16.645,-31.48 67.367,-20.969 134.523,-42.781 201.371,-65.488 41.364,-14.043 82.204,-29.543 122.704,-45.84 29.75,-11.9611 31.79,-20.2814 18.2,-45.0431 M 696.035,280.039 c 2.461,-0.418 4.887,-0.828 7.348,-1.25 3.051,6.242 7.144,12.172 9.015,18.723 17.266,60.09 37.098,119.617 50.516,180.566 21.012,95.481 37.621,191.91 56.168,287.949 7.039,36.543 14.391,73.055 21.359,109.598 2.149,11.34 2.289,22.051 -13.589,22.984 -34.571,1.946 -69.172,4.063 -103.739,5.864 -10.09,0.519 -16.367,-3.535 -16.504,-15.012 -0.242,-17.27 -1.492,-34.566 -1.804,-51.836 -2.981,-171.105 -5.895,-342.246 -8.77,-513.316 -0.211,-14.758 0,-29.5 0,-44.27 m 49.856,664.793 c 0.035,2.734 0.105,5.477 0.175,8.18 -7.664,2.043 -15.222,5.101 -23.023,5.859 -10.539,1.043 -21.289,-0.105 -31.934,0.449 -110.843,6.176 -221.656,12.969 -332.57,18.379 -20.594,1.039 -43.059,0.071 -54.676,-26.902 10.055,-1.082 18.41,-2.848 26.7,-2.676 41.121,0.731 82.273,3.852 123.289,2.637 85.711,-2.567 171.347,-7.594 257.089,-10.883 11.547,-0.453 23.301,3.223 34.95,4.957 M 660.426,1129.7 c -8.149,-3.89 -18.793,-6.1 -24.86,-12.62 -5.789,-6.2 -11.511,-19.03 -8.738,-25.07 3.086,-6.69 15.672,-12.41 24.203,-12.52 13.52,-0.13 27.598,3.3 40.391,8.08 7.109,2.61 12.101,10.93 18.027,16.75 -4.816,4.75 -8.906,11.23 -14.699,13.97 -10.055,4.75 -21.184,7.22 -34.324,11.41 M 521.359,230.879 c 70.313,-17.75 140.524,-37.039 211.047,-52.668 69.274,-15.391 136.258,-55.34 207.61,-50.59 -137.055,60.09 -275.985,101.899 -418.657,103.258" style="fill:#ffffff;fill-opacity:1;fill-rule:nonzero;stroke:none" id="path20" />
				</g>
			</g>
			<path d="m 1645.53,808.785 223.2,542.965 223.2,-542.965 165.43,512.895 h 37.99 L 2094.31,705.098 1866.36,1256.77 1639.2,705.098 1439.74,1321.68 h 37.99 z m 672.77,95.77 c 0,-46.438 13.85,-83.774 41.55,-111.996 27.7,-28.235 62.65,-42.344 104.88,-42.344 27.96,0 53.03,7.519 75.19,22.558 22.16,15.036 40.09,35.219 53.82,60.547 l 30.08,-17.414 c -16.37,-31.66 -38.79,-56.07 -67.28,-73.211 -28.49,-17.152 -60.69,-25.722 -96.56,-25.722 -26.39,0 -50.54,5.019 -72.43,15.035 -21.9,10.019 -40.76,23.871 -56.59,41.555 -15.83,17.671 -27.84,38.117 -36.01,61.339 -8.19,23.215 -12.27,47.75 -12.27,73.61 0,25.847 4.22,50.125 12.67,72.82 8.43,22.678 20.57,42.868 36.4,60.548 15.83,17.67 34.69,31.52 56.6,41.55 21.89,10.02 45.77,15.04 71.63,15.04 26.91,0 51.31,-5.02 73.21,-15.04 21.89,-10.03 40.49,-24.01 55.8,-41.95 15.3,-17.94 26.91,-38.66 34.83,-62.128 7.91,-23.485 11.87,-48.418 11.87,-74.797 z m 281.77,33.242 c -2.11,16.883 -7,32.973 -14.64,48.281 -7.66,15.302 -17.69,29.012 -30.08,41.162 -12.4,12.13 -26.79,21.49 -43.13,28.1 -16.37,6.59 -33.52,9.89 -51.45,9.89 -18.48,0 -35.89,-3.3 -52.24,-9.89 -16.36,-6.61 -31.14,-15.84 -44.32,-27.71 -13.2,-11.87 -23.75,-25.6 -31.66,-41.153 -7.92,-15.571 -12.67,-31.797 -14.25,-48.68 z m 157.5,440.073 v -344.3 h 1.59 c 10.55,20.58 25.33,36.53 44.32,47.88 19,11.35 40.37,17.02 64.11,17.02 44.85,0 76.11,-12.8 93.79,-38.39 17.68,-25.6 26.52,-63.713 26.52,-114.365 V 724.887 h -35.62 v 220.828 c 0,18.992 -0.93,35.219 -2.77,48.676 -1.85,13.459 -5.81,25.589 -11.87,36.409 -6.07,10.81 -14.92,19.25 -26.52,25.33 -11.61,6.06 -27.18,9.1 -46.69,9.1 -21.65,0 -39.71,-4.62 -54.22,-13.85 -14.52,-9.24 -25.47,-21.51 -32.85,-36.81 -7.39,-15.308 -12.54,-32.05 -15.43,-50.257 -2.91,-18.204 -4.36,-37.868 -4.36,-58.965 V 724.887 h -35.61 v 652.983 z m 387.83,-334.8 h 1.58 c 7.39,17.41 17.81,30.99 31.27,40.76 13.45,9.76 29.41,14.64 47.88,14.64 12.67,0 25.59,-2.9 38.79,-8.7 l -19,-31.66 c -8.45,4.75 -16.89,7.12 -25.33,7.12 -16.89,0 -30.47,-4.35 -40.76,-13.06 -10.29,-8.71 -17.95,-20.19 -22.95,-34.43 -5.03,-14.25 -8.19,-29.818 -9.5,-46.701 -1.33,-16.891 -1.98,-36.68 -1.98,-59.359 V 724.887 h -35.62 v 365.673 h 35.62 z m 220.03,-318.183 h -35.61 v 652.983 h 35.61 z m 170.96,0 h -35.62 v 365.673 h 35.62 z m 5.54,510.513 c 6.33,-6.33 9.5,-13.99 9.5,-22.95 0,-8.98 -3.17,-16.63 -9.5,-22.96 -6.33,-6.33 -13.99,-9.49 -22.95,-9.49 -8.98,0 -16.62,3.16 -22.96,9.49 -6.33,6.33 -9.49,13.98 -9.49,22.96 0,8.96 3.16,16.62 9.49,22.95 6.34,6.33 13.98,9.5 22.96,9.5 8.96,0 16.62,-3.17 22.95,-9.5" style="fill:#ffffff;fill-opacity:1;fill-rule:nonzero;stroke:none" id="path22" />
			<path d="m 4799.2,423.969 c 0,-18.93 -1.92,-35.039 -5.74,-48.34 -3.84,-13.301 -10.82,-25.457 -20.96,-36.5 -11.95,-13.07 -26.48,-23.207 -43.6,-30.418 -17.13,-7.211 -34.82,-10.82 -53.07,-10.82 -17.35,0 -33.97,3.437 -49.85,10.308 -15.89,6.871 -29.91,16.34 -42.08,28.391 -12.17,12.058 -21.69,25.969 -28.56,41.75 -6.88,15.769 -10.31,32.219 -10.31,49.34 0,18.031 3.43,35.039 10.31,51.039 6.87,16 16.44,30.082 28.73,42.25 12.28,12.172 26.53,21.633 42.75,28.39 16.23,6.762 33.24,10.141 51.04,10.141 22.53,0 43.15,-5.18 61.85,-15.551 18.7,-10.359 34.93,-25.008 48.68,-43.937 l -13.19,-10.473 c -11.49,17.352 -25.68,30.813 -42.58,40.391 -16.9,9.57 -35.49,14.359 -55.77,14.359 -15.1,0 -29.69,-3.098 -43.77,-9.289 -14.09,-6.199 -26.54,-14.711 -37.35,-25.52 -10.82,-10.82 -19.27,-23.21 -25.35,-37.179 -6.09,-13.973 -9.13,-28.512 -9.13,-43.602 0,-15.551 2.99,-30.308 8.96,-44.277 5.97,-13.973 14.31,-26.363 25.01,-37.184 10.7,-10.808 23.1,-19.207 37.18,-25.179 14.08,-5.969 28.9,-8.957 44.45,-8.957 13.29,0 26.41,2.476 39.37,7.437 12.96,4.949 24.85,11.832 35.66,20.621 10.59,9.012 18.31,18.918 23.15,29.738 4.85,10.821 7.49,23.43 7.95,37.864 h -91.26 v 15.207 z m 53.4,13.851 h 0.68 c 3.6,7.211 8.95,12.852 16.05,16.899 7.1,4.062 14.82,6.09 23.15,6.09 9.92,0 18.7,-2.481 26.37,-7.438 7.66,-4.961 13.52,-11.941 17.57,-20.949 4.06,9.226 10.14,16.269 18.26,21.117 8.11,4.84 17.23,7.27 27.37,7.27 9.69,0 17.75,-1.52 24.17,-4.571 6.42,-3.039 11.38,-7.316 14.87,-12.84 3.49,-5.519 5.92,-11.949 7.27,-19.269 1.35,-7.32 2.03,-15.598 2.03,-24.84 V 301.27 h -15.21 v 100.05 c 0,6.758 -0.4,12.731 -1.19,17.91 -0.79,5.18 -2.31,9.86 -4.56,14.032 -2.25,4.168 -5.63,7.437 -10.14,9.797 -4.51,2.371 -10.37,3.55 -17.57,3.55 -7.67,0 -14.15,-1.519 -19.44,-4.558 -5.3,-3.039 -9.46,-7.223 -12.51,-12.512 -3.04,-5.289 -5.18,-11.148 -6.42,-17.57 -1.24,-6.418 -1.86,-13.348 -1.86,-20.789 v -89.91 h -15.21 v 96.332 c 0,6.757 -0.45,12.957 -1.35,18.589 -0.9,5.629 -2.53,10.758 -4.9,15.379 -2.36,4.621 -5.91,8.282 -10.65,10.989 -4.73,2.703 -10.7,4.05 -17.91,4.05 -7.66,0 -14.08,-1.8 -19.27,-5.41 -5.18,-3.597 -9.18,-8.34 -11.99,-14.187 -2.82,-5.864 -4.79,-12.172 -5.92,-18.934 -1.13,-6.758 -1.69,-13.75 -1.69,-20.957 V 301.27 h -15.21 v 156.16 h 15.21 z M 5183.49,317.5 c 7.66,3.602 14.2,8.621 19.61,15.039 5.41,6.422 9.52,13.742 12.34,21.973 2.81,8.218 4.22,16.84 4.22,25.847 0,8.571 -1.47,16.852 -4.39,24.852 -2.93,7.988 -7.1,15.09 -12.51,21.289 -5.41,6.199 -11.89,11.102 -19.43,14.699 -7.56,3.61 -15.72,5.41 -24.51,5.41 -19.15,0 -34.31,-6.308 -45.46,-18.929 -11.15,-12.621 -16.73,-28.5 -16.73,-47.649 0,-18.929 5.41,-34.82 16.22,-47.66 5.41,-6.312 11.94,-11.269 19.61,-14.871 7.66,-3.609 16.22,-5.41 25.69,-5.41 9.23,0 17.68,1.801 25.34,5.41 z m -101.06,262.621 h 15.21 v -149.73 h 0.68 c 6.53,9.679 15.15,17.179 25.86,22.468 10.7,5.301 22.14,7.95 34.3,7.95 11.49,0 21.97,-2.028 31.44,-6.09 9.46,-4.047 17.51,-9.688 24.16,-16.899 6.65,-7.211 11.78,-15.769 15.38,-25.679 3.6,-9.922 5.41,-20.512 5.41,-31.782 0,-11.269 -1.81,-21.91 -5.41,-31.937 -3.6,-10.031 -8.79,-18.871 -15.55,-26.531 -6.76,-7.661 -14.93,-13.582 -24.5,-17.743 -9.58,-4.168 -20.11,-6.257 -31.6,-6.257 -11.95,0 -23.44,2.82 -34.48,8.449 -11.04,5.629 -19.38,13.301 -25.01,22.988 h -0.68 V 301.27 h -15.21 z m 361.66,-132.16 v 108.16 h 16.22 V 301.27 h -16.22 v 131.48 h -154.8 V 301.27 h -16.23 v 254.851 h 16.23 v -108.16 h 154.8" style="fill:#ffffff;fill-opacity:1;fill-rule:nonzero;stroke:none" id="path24" />
			<path d="m 4000.87,1262.78 h -140.2 V 723.434 h 308.3 v 118.742 h -168.1 z m 341.2,-172.39 H 4211.88 V 723.434 h 130.19 z m -65.09,213.88 c -40.06,0 -72.97,-32.91 -72.97,-72.97 0,-40.05 32.91,-72.96 72.97,-72.96 40.05,0 72.96,32.91 72.96,72.96 0,40.06 -32.91,72.97 -72.96,72.97 z m 415.58,-223.18 c -25.75,14.3 -55.79,21.46 -85.83,21.46 -115.17,0 -205.3,-81.55 -205.3,-199.573 0,-110.875 90.85,-191.704 199.57,-191.704 31.48,0 62.95,6.438 91.56,20.743 v 110.16 c -17.16,-15.738 -42.2,-25.035 -65.09,-25.035 -53.65,0 -91.56,37.195 -91.56,90.129 0,50.785 39.34,89.414 89.41,89.414 25.04,0 47.93,-11.446 67.24,-25.754 z m 80.82,236.05 V 723.434 h 130.19 v 188.125 c 0,42.921 16.45,87.269 67.96,87.269 52.21,0 58.65,-44.348 58.65,-87.269 V 723.434 h 130.19 v 224.605 c 0,92.991 -45.07,154.511 -138.06,154.511 -50.78,0 -87.27,-18.6 -117.31,-58.66 h -1.43 v 273.25 z m 615.17,-334.046 h 73.68 v 107.296 h -73.68 v 110.16 h -130.19 v -110.16 h -42.2 V 983.094 h 42.2 v -259.66 h 130.19 v 259.66" style="fill:#ffffff;fill-opacity:1;fill-rule:nonzero;stroke:none" id="path26" />
		</g>
	</g>
</svg>
